<svg xmlns="http://www.w3.org/2000/svg" width="195.6" height="220" xml:space="preserve"><path fill="#B6202C" d="M187.3 0H8.8L.6 209C49.3 221 98 220.3 98 220.3s48.7.6 97.5-11.3L187.3 0z"/><path fill="#85191B" d="M37.7 0H8.8L.6 209c12.6 3.1 25.3 5.3 37 7V0z"/><path fill="#F8B62E" d="M.6 209C49.3 221 98 220.3 98 220.3s48.7.6 97.5-11.3l-2-51.7c-95.5 19.9-191 0-191 0L.6 209z"/><path fill="#9F742B" d="M37.7 162.5c-21.7-2.4-35-5.2-35-5.2L.5 209c12.6 3.1 25.3 5.3 37 7v-53.5z"/><path fill="#764E1F" d="m35 170.4-6-.7v-8.2l-3-.4v8.3l-6.3-.8v-8.4l-3.1-.4v8.4l-6.2-.8v-8.6a295 295 0 0 1-3-.6v8.7l-5.1-.8L.6 209l1.5.4v-38.2l5.2.8v38.6l3.1.6v-38.8l6.2.9v39.2l3 .6v-39.5l6.4.8v39.8l3 .5v-40l6 .7v40.2l2.7.4v-53.5c-1 0-1.8-.2-2.6-.3v8.2z"/><path fill="#B6752B" d="M193.9 165.6c-2.5.5-5 1-7.5 1.3v-8.2l-3.1.6v8.1l-6.4 1v-8l-3.1.5v8l-7.6.9V162l-3 .4v7.8l-7.2.7v-7.7l-3 .4v7.6l-6.6.6v-7.6l-3.1.3v7.5l-7.3.5V165l-3 .2v7.5l-7.6.4v-7.5l-3 .1v7.5l-6.5.2V166h-3v7.5h-6.7v-7.4H103v7.5h-6.5v-7.5h-3.1v7.5l-7.5-.1v-7.6h-3v7.5l-6.6-.2v-7.6l-3-.2v7.7l-6-.3V165l-3-.2v7.7l-6.6-.4v-7.8l-3-.2v7.8l-5.8-.4v-7.9l-3-.3v8l-7.8-.7v-8.1h-.5V216h.5v-40.3l7.8.7V217l3 .4v-40.8l5.7.4v41l3 .3v-41l6.6.3V219l3.1.2v-41.3l6 .3v41.4l3 .2v-41.5l6.6.2V220h3v-41.5h7.5v41.7h3v-41.6h6.6v41.6h3v-41.6l6.7-.1V220l3.1-.2v-41.4l6.4-.2v41.3l3.1-.2v-41.2l7.5-.4v41l3.1-.2v-41l7.3-.5v40.8l3-.3v-40.7l6.6-.6v40.5l3.1-.4V176l7.2-.7v40.1l3-.5v-40l7.6-1v39.8l3-.6v-39.6l6.5-1v39.4l3-.7V172l7.7-1.3v38.7l1.6-.4-1.7-43.4z"/></svg>