<svg xmlns="http://www.w3.org/2000/svg" width="186.8" height="177.9" xml:space="preserve"><path fill="#B6202C" d="M0 170.2s94 17.5 186.8 0L183.4 0H5.5L0 170.2z"/><path fill="#F8B62E" d="M1.6 121.4 0 170.2s94 17.5 186.8 0l-1-49c-82 11.9-164.5 2.7-184.2.2z"/><path fill="#B6752B" d="m186.8 170.2-1-49-.6.2v7.5l-5.6.5V122l-3.1.4v7.1l-6.7.6v-6.9l-3 .4v6.7l-6 .4v-6.5l-3 .3v6.4l-6.3.3v-6.2l-3 .2v6.2c-2.1 0-4.2.2-6.2.3v-6l-3.1.1v6l-6.1.2v-5.8l-3.1.1v5.8l-6.2.2v-5.7l-3.1.1v5.7l-6.5.1V127H111v5.6l-6 .1v-5.6H102v5.6h-7v-5.5h-3.2v5.5h-6V127h-3.1v5.5h-6.9v-5.7l-3-.1v5.7l-6.8-.2v-5.7l-3-.2v5.8c-2.2 0-4.2 0-6.2-.2v-5.9l-3.1-.1v6l-7-.3v-6.1l-3.1-.2v6.1l-6-.3V125l-3.1-.3v6.4l-6-.3v-6.6l-3-.2v6.6l-6.2-.4v-6.8l-3-.3v6.9l-6.5-.5v-7.1l-3-.4v7.3l-5.3-.4v-6.4L0 170.2l1.5.2V133l5.3.4v38l3 .4v-38.2l6.5.5v38.6l3 .4v-38.8l6.2.4v39.2l3 .3v-39.3l6 .3v39.7l3 .3v-39.9l6 .3v40.1l3.2.3v-40.2l7 .2v40.5l3 .2V136l6.2.2V177l3.1.1v-40.8l6.8.2v41h3v-41l6.9.1v41.2h3v-41.1h6.1V178H95v-41.2a796.4 796.4 0 0 0 7.1 0V178h3v-41.2h6v41h3.2v-41.1l6.5-.1v41l3-.2v-40.9l6.3-.2V177l3-.2V136l6.2-.2v40.5l3-.3v-40.3l6.2-.3v40l3.1-.3v-39.9l6.3-.3v39.6l3-.4v-39.4l6-.4v39l3-.4v-38.8l6.7-.6V172l3-.6v-38l5.7-.5v37.5l1.6-.2z"/></svg>